<?xml version="1.0" encoding="UTF-8" standalone="no"?>
<!-- Created with Inkscape (http://www.inkscape.org/) -->

<svg
   width="120.90562mm"
   height="110.71172mm"
   viewBox="0 0 120.90561 110.71172"
   version="1.1"
   id="svg1"
   xml:space="preserve"
   inkscape:export-filename="svg\logo_trocha.svg"
   inkscape:export-xdpi="96"
   inkscape:export-ydpi="96"
   inkscape:version="1.4.2 (f4327f4, 2025-05-13)"
   sodipodi:docname="dibujo.svg"
   xmlns:inkscape="http://www.inkscape.org/namespaces/inkscape"
   xmlns:sodipodi="http://sodipodi.sourceforge.net/DTD/sodipodi-0.dtd"
   xmlns="http://www.w3.org/2000/svg"
   xmlns:svg="http://www.w3.org/2000/svg"><sodipodi:namedview
     id="namedview1"
     pagecolor="#ffffff"
     bordercolor="#000000"
     borderopacity="0.25"
     inkscape:showpageshadow="2"
     inkscape:pageopacity="0.0"
     inkscape:pagecheckerboard="0"
     inkscape:deskcolor="#d1d1d1"
     inkscape:document-units="mm"
     inkscape:zoom="0.98"
     inkscape:cx="367.34694"
     inkscape:cy="565.81633"
     inkscape:window-width="1920"
     inkscape:window-height="991"
     inkscape:window-x="-9"
     inkscape:window-y="-9"
     inkscape:window-maximized="1"
     inkscape:current-layer="layer1"
     inkscape:export-bgcolor="#ffffff00"><inkscape:page
       x="4.6664427e-06"
       y="5.7372131e-06"
       width="120.90562"
       height="110.71172"
       id="page1"
       margin="88.014458 38.067604 98.543785 51.836735"
       bleed="0" /></sodipodi:namedview><defs
     id="defs1"><inkscape:path-effect
       effect="bend_path"
       id="path-effect24"
       is_visible="true"
       lpeversion="1"
       bendpath="m 155.88758,771.04789 c 26.65355,20.77523 55.0659,19.94264 86.01601,0"
       prop_scale="1"
       scale_y_rel="false"
       vertical="false"
       hide_knot="false"
       bendpath-nodetypes="cc" /></defs><g
     inkscape:label="Capa 1"
     inkscape:groupmode="layer"
     id="layer1"
     transform="translate(-52.916668,-88.28444)"><path
       style="fill:#000000;stroke-width:0.264583"
       d="m 78.733347,103.62444 20.363518,11.91074"
       id="path1" /><path
       style="fill:#72b334;fill-opacity:1;stroke-width:0.264583"
       d="m 109.30642,111.8976 6.45246,-7.26751 15.45196,17.28581 4.00732,-3.05643 19.35739,19.08571 -19.01779,-15.28215 -1.69802,4.95821 4.61861,7.26751 -9.44098,-6.21474 -7.94671,4.07524 3.76959,-9.16929 -2.6489,-5.19594 -4.34693,6.89395 0.16981,-5.73929 -1.45483,-3.13994 -0.14131,-2.70124 -0.95823,-6.41027 z"
       id="path2"
       sodipodi:nodetypes="cccccccccccccccccc" /><path
       style="fill:#72b334;fill-opacity:1;stroke-width:0.264583"
       d="m 97.90787,116.40096 c 0,0 1.217065,-1.88397 3.83619,-3.68213 2.62159,-1.79985 3.64436,-2.32256 3.64436,-2.32256 0,0 1.35968,-0.71131 1.64784,0.15317 0.28817,0.86449 1.02579,2.43263 1.4223,3.71407 0.3965,1.28143 1.19977,4.1548 1.19977,4.1548 l 1.63083,6.67308 -1.99627,-0.69974 c 0,0 -0.52668,-3.00547 -0.75149,-3.64827 -0.22481,-0.6428 -1.51993,-3.68091 -5.16302,-4.1342 -3.80668,-0.26195 -5.47051,-0.20822 -5.47051,-0.20822 z"
       id="path3"
       sodipodi:nodetypes="cscszccczcc" /><path
       style="fill:#72b334;fill-opacity:1;stroke-width:0.264583"
       d="m 110.52733,127.0617 -3.45796,3.12176 4.46653,0.19211 c 0,0 -0.96054,-1.72898 -1.00857,-3.31387 z"
       id="path4" /><path
       style="fill:#72b334;fill-opacity:1;stroke-width:0.264583"
       d="m 112.49644,133.11312 -1.96911,3.12177 3.50598,-0.96055 c 0,0 -1.58489,-1.39278 -1.53687,-2.16122 z"
       id="path5" /><path
       style="fill:#72b334;fill-opacity:1;stroke-width:0.264583"
       d="m 116.43467,137.57965 -0.33619,2.68952 2.25728,-1.10463 c 0,0 -1.5849,-0.7204 -1.92109,-1.58489 z"
       id="path6" /><path
       style="fill:#72b334;fill-opacity:1;stroke-width:0.264583"
       d="m 121.86174,141.80604 0.0961,2.40136 1.87305,-1.24871 c 0,0 -1.05659,-0.48027 -1.96911,-1.15265 z"
       id="path7" /><path
       style="fill:#72b334;fill-opacity:1;stroke-width:0.264583"
       d="m 128.20133,145.40808 0.33619,2.16122 1.05659,-1.15265 z"
       id="path8" /><path
       style="fill:#72b334;fill-opacity:1;stroke:none;stroke-width:0.264583;stroke-opacity:1"
       d="m 153.75178,161.25704 c 0,0 -3.73546,2.90294 -14.69631,4.80272 0,0 -8.33271,1.48884 -15.34468,0.8885 -7.01197,-0.60034 -15.32067,-3.00169 -15.32067,-3.00169 0,0 -6.41162,-2.2813 -13.183454,-2.52143 0,0 -1.148435,-15.46532 -18.604047,-19.20096 0,0 2.784747,-5.50157 2.105541,-11.47859 -0.679207,-5.97702 -0.743246,-6.26535 -0.743246,-6.26535 0,0 -0.377445,-2.22474 1.796016,-2.7681 2.173462,-0.54337 5.636644,-1.8123 8.524044,-2.44514 3.501504,-0.76743 7.403353,-1.47728 10.629585,-1.6301 3.226231,-0.15282 3.117401,-0.12565 4.516721,0.16976 1.39933,0.29541 3.83566,1.60509 4.31297,4.48277 l 0.40752,1.96973 -2.41118,-0.88296 c 0,0 -0.23877,-1.50706 -1.69802,-1.56218 -1.43028,-0.054 -1.7999,1.35841 -1.7999,1.35841 0,0 -0.31707,1.02229 0.54337,1.73198 0.64165,0.52923 1.03997,0.46528 1.22257,0.47545 0.28987,0.0161 0.98485,-0.034 1.29049,-0.64525 l 4.21108,1.35841 -3.15521,2.99183 c 0,0 -0.82383,-0.21287 -1.57395,-0.005 -0.52215,0.14478 -1.07307,0.70696 -1.23027,1.3417 -0.14309,0.57782 0.17373,1.74618 1.14628,1.97013 0.78094,0.17982 1.25979,0.0584 1.92035,-0.57933 l 2.40912,-0.0261 2.58922,0.046 -2.58098,4.24504 c 0,0 -1.04836,-0.26588 -1.7999,0.37357 -1.08816,0.92587 -0.38386,2.30347 -0.38386,2.30347 0,0 0.39927,0.9376 1.85581,0.89292 1.45654,-0.0447 1.51656,-1.80402 1.51656,-1.80402 l 4.82237,-1.22257 -0.64525,4.36923 c 0,0 -1.20398,-0.21261 -1.7999,0.92858 -0.59592,1.14119 0.25726,2.09603 0.56156,2.33331 0.3043,0.23728 1.87391,0.48882 2.46091,-0.36361 0.587,-0.85243 0.23773,-1.86782 0.23773,-1.86782 l 3.97336,-1.6301 0.54336,4.55069 c 0,0 -0.84225,0.29801 -1.11827,0.92375 -0.27602,0.62574 -0.53572,1.62716 0.52482,2.34586 0.67636,0.26845 1.62138,0.36306 2.27534,-0.23531 0.65397,-0.59837 0.28781,-2.08341 0.28781,-2.08341 l 2.95455,-1.93574 c 0,0 0.95089,0.67921 1.08673,0.64525 0.13584,-0.034 0.84318,3.98159 0.84318,3.98159 0,0 -1.30813,0.57604 -1.2507,1.62186 0.0574,1.04582 0.37735,1.639 1.45034,1.7999 1.073,0.1609 1.67761,-0.68782 1.87194,-1.1025 0.19211,-0.40994 -0.23189,-1.71621 -0.23189,-1.71621 l 2.07158,-1.86782 c 0,0 4.34692,3.56584 10.42582,3.7696 6.0789,0.20376 7.84484,1.93574 7.84484,1.93574 0,0 3.888,1.83006 4.3382,8.23349 z"
       id="path9"
       sodipodi:nodetypes="ccscccscsazzcccscsscccsssccccsczccczzzccczczcccczzsccsccc" /><path
       style="fill:#72b334;fill-opacity:1;stroke:none;stroke-width:0.264583;stroke-opacity:1"
       d="m 76.059253,143.75239 c 0,0 2.70797,0.47524 4.992169,1.42634 2.284198,0.9511 5.414179,2.68652 7.437314,4.89029 1.901778,2.07158 2.614945,3.70168 2.614945,3.70168 0,0 1.935739,3.73563 2.377223,7.36939 l -18.576302,-1.66406 c 0,0 -2.784748,-7.09772 1.154651,-15.72364 z"
       id="path11"
       sodipodi:nodetypes="czscccc" /><path
       style="fill:#72b334;fill-opacity:1;stroke:none;stroke-width:0.263052;stroke-opacity:1"
       d="m 75.004632,161.22083 c 0.434501,-0.1282 1.233368,0.0362 3.580008,0.27785 2.287495,0.23553 5.009695,0.45316 5.009695,0.45316 0,0 14.337047,1.03366 20.531545,2.66678 6.19449,1.6331 7.42865,1.94532 7.42865,1.94532 0,0 7.2322,2.25715 13.60946,2.18923 6.37726,-0.0679 7.61914,-0.13586 7.61914,-0.13586 0,0 7.95479,-0.8491 11.07629,-1.6982 3.1215,-0.84911 4.32983,-1.25668 4.32983,-1.25668 0,0 4.53121,-1.63028 5.97449,-3.09075 0,0 1.07406,0.034 0.80555,4.58518 0,0 -0.0503,1.01892 -1.20833,1.57934 -1.15798,0.5604 -4.19557,1.74914 -4.19557,1.74914 l -1.12441,-1.44347 -1.35936,0.42455 -0.7552,2.13974 -3.74245,0.81514 c 0,0 -1.10762,-1.78312 -1.19153,-1.76614 -0.0839,0.017 -1.99709,0.3906 -1.99709,0.3906 l -0.92303,2.34352 -4.11165,0.45853 -1.10763,-1.88502 -2.38308,0.034 -1.19154,2.29258 -4.01096,-0.0509 -1.3258,-2.22465 -1.94674,-0.22077 -1.47684,2.03785 -4.17879,-0.52645 -1.07406,-2.51334 -15.55715,-3.60021 -3.255761,5.06066 -3.742443,-0.16981 -1.090847,-2.0888 -1.695008,0.0509 -1.006936,1.88502 -3.94383,-0.017 -1.057283,-2.34354 -1.795702,-0.0849 -1.107629,1.93596 c 0,0 -4.262693,-0.42455 -6.226218,-1.01893 0,0 -0.755202,-0.0679 -0.67129,-1.27367 0.08391,-1.20573 -0.175518,-6.67387 -0.106039,-7.20207 0.003,-0.40435 0.161036,-0.57569 0.595538,-0.70389 z"
       id="path12"
       sodipodi:nodetypes="zscscscscccscccccscccccccccccccccccccccccscz" /><path
       style="fill:#9a5f32;fill-opacity:1;stroke:#9a5f32;stroke-width:0.264583;stroke-opacity:1"
       d="m 54.829234,179.43191 c 0,0 6.530841,-2.84668 11.853439,-4.01156 5.412053,-1.18445 10.16014,-1.74763 16.922378,-1.77313 13.182079,-0.0499 19.906749,1.48384 19.906749,1.48384 0,0 8.22289,1.53755 12.57673,2.87111 4.4882,1.37471 9.0109,2.88514 9.0109,2.88514 0,0 10.33577,2.9818 18.18308,3.59617 0,0 7.47767,0.88728 14.33263,0.31716 6.8578,-0.57037 15.88356,-2.54164 15.88356,-2.54164 0,0 -7.56951,3.9146 -16.4522,4.75131 -9.03017,0.8506 -14.71704,0.19165 -18.88433,-0.57091 -4.1673,-0.76258 -9.99295,-2.16812 -9.99295,-2.16812 l -8.53415,-2.54741 c 0,0 -8.28986,-2.63398 -12.78329,-3.58347 -4.49343,-0.94949 -10.164382,-1.81835 -14.679566,-2.18361 -5.730769,-0.4636 -14.094634,-0.25018 -14.094634,-0.25018 0,0 -6.269444,0.15232 -10.151253,0.75313 -3.88181,0.60082 -13.097093,2.97217 -13.097093,2.97217 z"
       id="path13"
       sodipodi:nodetypes="csscsccscszcczsczc" /><path
       style="fill:none;fill-opacity:1;stroke:#72b334;stroke-width:3.628;stroke-linecap:round;stroke-linejoin:round;stroke-dasharray:none;stroke-opacity:1"
       id="path14"
       sodipodi:type="arc"
       sodipodi:cx="113.69712"
       sodipodi:cy="142.81461"
       sodipodi:rx="52.06419"
       sodipodi:ry="52.256294"
       sodipodi:start="1.1451086"
       sodipodi:end="2.3372597"
       sodipodi:arc-type="arc"
       d="m 135.19688,190.40728 a 52.06419,52.256294 0 0 1 -57.61106,-9.9489"
       sodipodi:open="true" /><path
       style="fill:none;fill-opacity:1;stroke:#72b334;stroke-width:3.628;stroke-linecap:round;stroke-linejoin:round;stroke-dasharray:none;stroke-opacity:1"
       id="path14-1"
       transform="rotate(-179.01337)"
       sodipodi:type="arc"
       sodipodi:cx="-116.25103"
       sodipodi:cy="-140.6727"
       sodipodi:rx="52.06419"
       sodipodi:ry="52.256294"
       sodipodi:start="5.7334052"
       sodipodi:end="3.9391741"
       sodipodi:open="true"
       sodipodi:arc-type="arc"
       d="m -71.859048,-167.9766 a 52.06419,52.256294 0 0 1 -13.960688,69.704492 52.06419,52.256294 0 0 1 -70.294524,-8.786682 52.06419,52.256294 0 0 1 3.49954,-71.01212" /><path
       d="m 154.22068,775.44578 4.44748,-5.89868 c -0.36659,-0.2752 -0.73071,-0.55342 -1.09228,-0.83454 l 0.9975,-1.27629 c 1.14443,0.88705 2.31418,1.74465 3.50679,2.5694 l -0.92651,1.33433 c -0.37724,-0.26128 -0.75218,-0.5258 -1.12473,-0.79346 l -4.3245,5.99923 c -0.49901,-0.36143 -0.99364,-0.72816 -1.48375,-1.09999 z m 3.65045,2.61708 5.04927,-7.48413 c 0.627,0.4217 1.26005,0.83425 1.8988,1.23719 0.58667,0.37007 0.94923,0.82995 1.09107,1.39312 0.14363,0.55865 0.0511,1.12848 -0.28918,1.70595 l -0.73371,1.24516 c -0.21608,0.36669 -0.48418,0.64431 -0.80736,0.83075 -0.32303,0.18636 -0.68343,0.27754 -1.08032,0.27126 0.0542,-0.17377 0.10869,-0.34741 0.16345,-0.52092 0.25906,0.30377 0.41544,0.61237 0.4677,0.92842 0.056,0.31808 -0.003,0.62802 -0.18032,0.92892 l -1.28399,2.17903 c -0.53322,-0.31398 -1.06262,-0.63404 -1.58807,-0.95999 l 1.33277,-2.14959 c 0.0952,-0.15354 0.12233,-0.30671 0.0822,-0.45944 -0.038,-0.15616 -0.1464,-0.29013 -0.3252,-0.40308 -0.18628,-0.11768 -0.37206,-0.23612 -0.55733,-0.35531 l -1.69352,2.63347 c -0.51952,-0.33458 -1.03498,-0.67491 -1.54625,-1.02081 z m 4.11911,-2.98004 c 0.18155,0.11674 0.36359,0.23275 0.54611,0.348 0.17525,0.11067 0.33959,0.1494 0.49196,0.11664 0.15457,-0.0362 0.27916,-0.13138 0.37436,-0.28493 l 0.76158,-1.22834 c 0.0952,-0.15353 0.12493,-0.30513 0.09,-0.45454 -0.0328,-0.15289 -0.13385,-0.2822 -0.30316,-0.38905 -0.1764,-0.11132 -0.35235,-0.22336 -0.52786,-0.33611 z m 3.79499,7.91738 c -0.69047,-0.3581 -1.14062,-0.83488 -1.34706,-1.41506 -0.20256,-0.5783 -0.13461,-1.15803 0.19163,-1.73898 l 2.42911,-4.32565 c 0.32815,-0.58435 0.7735,-0.95075 1.32685,-1.10784 0.55991,-0.15892 1.13673,-0.0775 1.74376,0.23958 0.61054,0.31896 1.00637,0.74552 1.19262,1.29338 0.18764,0.54317 0.14297,1.11764 -0.14642,1.72091 l -2.14252,4.46633 c -0.28775,0.59984 -0.72317,0.98805 -1.31349,1.15466 -0.58997,0.16652 -1.23993,0.0729 -1.93448,-0.28733 z m 0.74997,-1.44114 c 0.19198,0.0997 0.36526,0.12762 0.5187,0.0844 0.1553,-0.0467 0.27365,-0.15088 0.35556,-0.31169 l 2.24986,-4.417 c 0.0819,-0.1608 0.0991,-0.31415 0.0523,-0.45985 -0.045,-0.14935 -0.15556,-0.26949 -0.33208,-0.36158 -0.17652,-0.0921 -0.33831,-0.11405 -0.48641,-0.0653 -0.14614,0.0451 -0.2619,0.14711 -0.34663,0.30653 l -2.32732,4.37898 c -0.0847,0.15943 -0.10208,0.31608 -0.0512,0.46994 0.0528,0.15029 0.17523,0.27589 0.3672,0.37557 z m 8.75951,2.7092 -0.16724,0.44924 c -0.23134,0.62145 -0.62902,1.04612 -1.20172,1.26426 -0.57234,0.218 -1.22875,0.18271 -1.95355,-0.11418 -0.72057,-0.29515 -1.21201,-0.72991 -1.46914,-1.2887 -0.25308,-0.55727 -0.23613,-1.1395 0.038,-1.74515 l 2.04112,-4.50961 c 0.27578,-0.6093 0.68556,-1.01158 1.22097,-1.21617 0.5411,-0.20673 1.11874,-0.17643 1.74655,0.0845 0.63141,0.26239 1.05994,0.64999 1.29244,1.17682 0.23344,0.52197 0.24053,1.09613 0.008,1.7211 l -0.16723,0.44924 c -0.52899,-0.19762 -1.05586,-0.40219 -1.58046,-0.61352 l 0.17879,-0.44527 c 0.067,-0.16697 0.0706,-0.32075 0.0115,-0.46124 -0.0576,-0.14428 -0.17764,-0.25371 -0.36052,-0.3295 -0.18289,-0.0758 -0.34507,-0.0833 -0.48762,-0.0219 -0.14091,0.0577 -0.24684,0.1692 -0.31701,0.33501 l -1.92766,4.5545 c -0.0702,0.16582 -0.0735,0.32299 -0.009,0.47139 0.0659,0.14469 0.19907,0.25874 0.39913,0.34087 0.20006,0.0821 0.37509,0.0946 0.52394,0.0382 0.15037,-0.0602 0.25878,-0.17407 0.32583,-0.34105 l 0.17879,-0.44527 c 0.55614,0.22263 1.11497,0.43818 1.67636,0.64647 z m 0.51478,2.84438 2.95985,-8.47925 c 0.51146,0.18008 1.02467,0.35325 1.53949,0.51932 l -1.3664,4.27308 c 0.32779,0.10482 0.65631,0.20702 0.98555,0.30657 l 1.29775,-4.29191 c 0.51668,0.15761 1.0349,0.30801 1.55452,0.45102 l -2.35921,8.64405 c -0.59935,-0.16238 -1.19633,-0.33286 -1.79082,-0.51124 l 0.83057,-2.74683 c -0.33754,-0.10176 -0.6743,-0.20623 -1.01027,-0.31335 l -0.87449,2.73477 c -0.59148,-0.18768 -1.18037,-0.38315 -1.76654,-0.58623 z m 5.7866,1.73007 c 1.36763,-2.73405 2.65257,-5.49662 3.85147,-8.28559 0.56667,0.12683 1.13471,0.24465 1.70394,0.35321 -0.0149,3.03324 0.059,6.07403 0.22449,9.11994 -0.62909,-0.10009 -1.25626,-0.20939 -1.88135,-0.3277 0.01,-0.47165 0.0212,-0.94314 0.0344,-1.41445 -0.51362,-0.0992 -1.02588,-0.20468 -1.53668,-0.3163 -0.17897,0.43728 -0.35963,0.87406 -0.54198,1.31034 -0.62038,-0.13777 -1.23852,-0.28432 -1.85428,-0.43945 z m 2.99905,-2.38865 c 0.32653,0.07 0.65362,0.13749 0.98125,0.2023 0.0458,-1.27193 0.10402,-2.54254 0.17441,-3.81174 0.0727,0.0152 0.14547,0.0302 0.21824,0.0451 -0.44557,1.19157 -0.90359,2.37971 -1.3739,3.56431 z m 6.49443,4.05654 c 0.94456,-2.90522 1.79515,-5.83243 2.54842,-8.77951 0.57578,0.0353 1.1521,0.0604 1.7288,0.0752 0.45752,3.00522 1.01332,6.00951 1.67033,9.01046 -0.64489,-0.002 -1.28858,-0.0142 -1.93093,-0.0365 -0.065,-0.46937 -0.12803,-0.93873 -0.18922,-1.40808 -0.52695,-0.0196 -1.05305,-0.0463 -1.57821,-0.0797 -0.11013,0.46006 -0.22217,0.91976 -0.33613,1.37909 -0.63924,-0.0439 -1.27697,-0.0976 -1.91306,-0.16095 z m 2.61259,-2.81271 c 0.3348,0.0194 0.66994,0.0359 1.0054,0.0495 -0.15382,-1.26754 -0.29395,-2.53492 -0.42051,-3.80204 0.0741,0.004 0.14817,0.007 0.22228,0.0102 -0.25508,1.24996 -0.52419,2.49745 -0.80717,3.74237 z m 4.56124,3.09942 -0.19804,-8.98625 c 0.73735,-0.0113 1.47405,-0.0382 2.20995,-0.0802 0.67575,-0.0385 1.22629,0.1211 1.66404,0.49061 0.43642,0.36472 0.6946,0.87453 0.76065,1.53528 l 0.45098,4.51148 c 0.0657,0.65694 -0.10345,1.21088 -0.52093,1.6568 -0.41714,0.44555 -1.02199,0.70172 -1.80458,0.75287 -0.85124,0.0556 -1.70531,0.0956 -2.56207,0.11942 z m 1.78914,-1.69019 c 0.22481,-0.0121 0.44945,-0.0253 0.6739,-0.0397 0.2155,-0.0138 0.37802,-0.0791 0.48685,-0.19466 0.10858,-0.11955 0.15595,-0.26885 0.14309,-0.44757 l -0.32591,-4.52748 c -0.0129,-0.1787 -0.0768,-0.31791 -0.19072,-0.418 -0.1143,-0.10414 -0.26913,-0.14992 -0.46541,-0.13839 -0.20451,0.012 -0.40909,0.0229 -0.61376,0.0327 z m 5.98114,1.03463 c -1.05565,-2.86147 -2.03105,-5.74388 -2.92252,-8.64641 0.5472,-0.0595 1.09385,-0.12702 1.63987,-0.20228 0.64542,2.1534 1.3277,4.29821 2.04584,6.43419 -0.0788,0.0123 -0.15752,0.0244 -0.23631,0.0364 0.029,-2.25119 0.0223,-4.49971 -0.0195,-6.74524 0.54458,-0.092 1.08845,-0.19146 1.63156,-0.29824 0.0247,3.03305 -0.0271,6.0722 -0.15872,9.11621 -0.65806,0.11066 -1.31816,0.21253 -1.98023,0.30535 z m 6.8174,-10.52198 0.42066,1.55741 c -0.6981,0.18987 -1.39807,0.36895 -2.09976,0.5368 l 0.4141,1.74179 c 0.60877,-0.14506 1.21603,-0.29823 1.82172,-0.45923 l 0.41339,1.55902 c -0.61902,0.16394 -1.23985,0.31997 -1.86241,0.46782 l 0.53833,2.26432 c 0.75971,-0.17959 1.51652,-0.37076 2.27031,-0.57306 l 0.42065,1.55741 c -1.36301,0.36454 -2.73656,0.69389 -4.11988,0.98549 l -1.8575,-8.75046 c 1.21778,-0.26055 2.43149,-0.55717 3.64039,-0.88731 z m 3.87574,8.22463 -2.50905,-8.61262 c 0.38876,-0.11454 0.77699,-0.23247 1.16467,-0.3537 1.23581,1.64545 2.52222,3.2681 3.85575,4.8674 -0.1481,0.0543 -0.29634,0.1082 -0.44472,0.16167 l -1.84405,-5.53791 c 0.48266,-0.16249 0.9644,-0.32996 1.44517,-0.50224 l 3.00787,8.48156 c -0.42866,0.15059 -0.85854,0.29792 -1.28961,0.44192 -1.3579,-1.59394 -2.66915,-3.21141 -3.93026,-4.85183 0.14443,-0.0487 0.28873,-0.0978 0.43291,-0.14737 l 1.74508,5.56391 c -0.5428,0.16852 -1.0874,0.33165 -1.63376,0.48921 z m 7.14387,-2.40353 -2.67015,-6.89268 c -0.4286,0.167 -0.85815,0.33043 -1.2886,0.49019 l -0.56094,-1.5209 c 1.36167,-0.50723 2.71525,-1.0524 4.05962,-1.63166 l 0.63945,1.49468 c -0.42426,0.18232 -0.84953,0.36133 -1.27578,0.53691 l 2.80615,6.84728 c -0.56758,0.23089 -1.13751,0.45635 -1.70975,0.67618 z m 6.36689,-2.50041 c -0.69541,0.32466 -1.34075,0.39034 -1.92454,0.2019 -0.5799,-0.19035 -1.0011,-0.59428 -1.26932,-1.20461 l -1.99707,-4.54446 c -0.26976,-0.61384 -0.29365,-1.19154 -0.081,-1.73159 0.21511,-0.54623 0.63612,-0.96322 1.26791,-1.26086 0.63562,-0.29943 1.22621,-0.35901 1.78117,-0.17427 0.55292,0.18103 0.98182,0.56894 1.28114,1.17044 l 2.21531,4.45184 c 0.29753,0.5979 0.33847,1.18037 0.1138,1.74683 -0.22456,0.56622 -0.68786,1.0182 -1.38738,1.34478 z m -0.69123,-1.47423 c 0.19436,-0.0909 0.32076,-0.21061 0.37905,-0.35832 0.0566,-0.15136 0.0456,-0.30873 -0.0323,-0.47208 l -2.13879,-4.48654 c -0.0779,-0.16335 -0.18974,-0.27029 -0.33522,-0.32129 -0.14722,-0.0546 -0.31176,-0.0388 -0.49435,0.0471 -0.1826,0.0859 -0.29976,0.20252 -0.35173,0.35078 -0.0537,0.14454 -0.0429,0.299 0.0328,0.46324 l 2.0798,4.51158 c 0.0757,0.16426 0.18971,0.27338 0.34235,0.32687 0.15092,0.0498 0.32399,0.0296 0.51836,-0.0613 z m 4.35071,-10.84072 3.47985,6.08383 c 0.33137,0.57935 0.40681,1.15774 0.21784,1.7366 -0.18877,0.57821 -0.62099,1.05662 -1.29554,1.42485 -0.67064,0.3661 -1.30781,0.47148 -1.90102,0.31942 -0.58939,-0.15421 -1.03543,-0.53139 -1.3424,-1.12467 l -3.22317,-6.22943 c 0.49884,-0.25831 0.9961,-0.52066 1.49169,-0.78684 l 3.32121,6.1776 c 0.0857,0.1595 0.20612,0.26154 0.36152,0.3057 0.15344,0.0406 0.32448,0.01 0.51232,-0.0926 0.18784,-0.10249 0.30626,-0.22964 0.35519,-0.38064 0.047,-0.15454 0.0265,-0.31103 -0.0611,-0.4695 l -3.39058,-6.13824 c 0.49311,-0.27174 0.98452,-0.54716 1.47417,-0.82604 z m 6.13388,6.89315 -4.60548,-7.77808 c 0.66586,-0.39177 1.32829,-0.78964 1.98713,-1.19306 0.60521,-0.37059 1.19125,-0.49602 1.76541,-0.37509 0.57143,0.11744 1.03995,0.45427 1.4013,1.01604 l 0.7791,1.21125 c 0.22942,0.35667 0.35594,0.71994 0.37778,1.09103 0.0218,0.37096 -0.0566,0.73247 -0.23652,1.08363 -0.13097,-0.12564 -0.26181,-0.25141 -0.39254,-0.3773 0.38536,-0.0965 0.72936,-0.0979 1.03312,-0.003 0.3073,0.0928 0.55564,0.28473 0.74391,0.57743 l 1.36344,2.11969 c -0.50455,0.32824 -1.01218,0.65349 -1.52283,0.97554 l -1.33806,-2.14138 c -0.0956,-0.15294 -0.22034,-0.245 -0.37401,-0.27655 -0.15583,-0.035 -0.32261,0.003 -0.50099,0.11344 -0.18583,0.11514 -0.37202,0.22986 -0.55857,0.34413 l 1.63191,2.67069 c -0.51508,0.3172 -1.03314,0.63105 -1.5541,0.94134 z m -0.92514,-4.99874 c 0.18435,-0.1126 0.36837,-0.22564 0.55207,-0.3391 0.17635,-0.10893 0.28348,-0.2393 0.32139,-0.39038 0.0358,-0.1545 0.006,-0.30817 -0.0899,-0.46113 l -0.76461,-1.22365 c -0.0956,-0.15294 -0.21891,-0.24616 -0.36971,-0.28004 -0.15297,-0.0373 -0.31564,-0.003 -0.48861,0.10358 -0.18021,0.11071 -0.3607,0.22102 -0.54148,0.3309 z"
       id="text17"
       style="font-weight:bold;font-size:12px;font-family:Mohave;-inkscape-font-specification:'Mohave, Bold';white-space:pre;display:none;fill:#9a5f32;stroke-width:1.40727;paint-order:markers stroke fill"
       transform="matrix(1.2809415,0.07228652,-0.068353,1.2510556,-88.042371,-787.01019)"
       aria-label="TROCHA ADVENTOUR"
       inkscape:transform-center-x="-1.6773189"
       inkscape:path-effect="#path-effect24"
       inkscape:original-d="m 157.20758,775.54789 v -7.38 h -1.32 v -1.62 h 4.26 v 1.62 h -1.32 v 7.38 z m 3.936,0 v -9 h 2.22 q 1.02,0 1.62,0.612 0.6,0.606 0.6,1.608 v 1.44 q 0,0.636 -0.252,1.122 -0.252,0.486 -0.72,0.786 l -0.12,-0.528 q 0.522,0.186 0.804,0.552 0.288,0.366 0.288,0.888 v 2.52 h -1.62 v -2.52 q 0,-0.27 -0.156,-0.432 -0.156,-0.168 -0.444,-0.168 h -0.6 v 3.12 z m 1.62,-4.74 h 0.6 q 0.288,0 0.444,-0.162 0.156,-0.168 0.156,-0.438 v -1.44 q 0,-0.27 -0.156,-0.432 -0.156,-0.168 -0.444,-0.168 h -0.6 z m 6.51599,4.932 q -1.014,0 -1.62,-0.612 -0.6,-0.612 -0.6,-1.608 v -4.944 q 0,-1.002 0.6,-1.608 0.606,-0.612 1.62,-0.612 1.02,0 1.62,0.612 0.6,0.606 0.6,1.608 v 4.944 q 0,0.996 -0.6,1.608 -0.6,0.612 -1.62,0.612 z m 0,-1.62 q 0.288,0 0.444,-0.162 0.156,-0.168 0.156,-0.438 v -4.944 q 0,-0.27 -0.156,-0.432 -0.156,-0.168 -0.444,-0.168 -0.288,0 -0.444,0.168 -0.156,0.162 -0.156,0.432 v 4.944 q 0,0.27 0.156,0.438 0.156,0.162 0.444,0.162 z m 8.148,-1.08 v 0.48 q 0,0.996 -0.6,1.608 -0.6,0.612 -1.62,0.612 -1.014,0 -1.62,-0.612 -0.6,-0.612 -0.6,-1.608 v -4.944 q 0,-1.002 0.6,-1.608 0.606,-0.612 1.62,-0.612 1.02,0 1.62,0.612 0.6,0.606 0.6,1.608 v 0.48 h -1.62 v -0.48 q 0,-0.27 -0.156,-0.432 -0.156,-0.168 -0.444,-0.168 -0.288,0 -0.444,0.168 -0.156,0.162 -0.156,0.432 v 4.944 q 0,0.27 0.156,0.438 0.156,0.162 0.444,0.162 0.288,0 0.444,-0.162 0.156,-0.168 0.156,-0.438 v -0.48 z m 1.28399,2.508 v -9 h 1.62 v 4.5 h 0.96 v -4.5 h 1.62 v 9 h -1.62 v -2.88 h -0.96 v 2.88 z m 5.25601,0 1.704,-9 h 1.752 l 1.668,9 h -1.656 l -0.204,-1.404 h -1.392 l -0.216,1.404 z m 2.112,-3.024 h 0.912 l -0.552,-3.792 h 0.216 z m 6.252,3.024 1.704,-9 h 1.752 l 1.668,9 h -1.656 l -0.204,-1.404 h -1.392 l -0.216,1.404 z m 2.112,-3.024 h 0.912 l -0.552,-3.792 h 0.216 z m 4.06801,3.024 v -9 h 2.22 q 1.02,0 1.62,0.612 0.6,0.606 0.6,1.608 v 4.56 q 0,0.996 -0.6,1.608 -0.6,0.612 -1.62,0.612 z m 1.62,-1.62 h 0.6 q 0.288,0 0.444,-0.162 0.156,-0.168 0.156,-0.438 v -4.56 q 0,-0.27 -0.156,-0.432 -0.156,-0.168 -0.444,-0.168 h -0.6 z m 5.15999,1.62 -1.704,-9 h 1.656 l 1.032,6.708 h -0.216 l 0.996,-6.708 h 1.656 l -1.668,9 z m 8.19601,-9 v 1.62 h -2.1 v 1.8 h 1.776 v 1.62 h -1.776 v 2.34 h 2.1 v 1.62 h -3.72 v -9 z m 1.404,9 v -9 h 1.2 l 2.052,5.832 -0.432,0.012 v -5.844 h 1.5 v 9 h -1.2 l -2.052,-5.832 0.432,-0.012 v 5.844 z m 6.63601,0 v -7.38 h -1.32 v -1.62 h 4.26 v 1.62 h -1.32 v 7.38 z m 6.024,0.192 q -1.014,0 -1.62,-0.612 -0.6,-0.612 -0.6,-1.608 v -4.944 q 0,-1.002 0.6,-1.608 0.606,-0.612 1.62,-0.612 1.02,0 1.62,0.612 0.6,0.606 0.6,1.608 v 4.944 q 0,0.996 -0.6,1.608 -0.6,0.612 -1.62,0.612 z m 0,-1.62 q 0.288,0 0.444,-0.162 0.156,-0.168 0.156,-0.438 v -4.944 q 0,-0.27 -0.156,-0.432 -0.156,-0.168 -0.444,-0.168 -0.288,0 -0.444,0.168 -0.156,0.162 -0.156,0.432 v 4.944 q 0,0.27 0.156,0.438 0.156,0.162 0.444,0.162 z m 8.21999,-7.572 v 6.972 q 0,0.996 -0.6,1.608 -0.6,0.612 -1.62,0.612 -1.014,0 -1.62,-0.612 -0.6,-0.612 -0.6,-1.608 v -6.972 h 1.62 v 6.972 q 0,0.27 0.156,0.438 0.156,0.162 0.444,0.162 0.288,0 0.444,-0.162 0.156,-0.168 0.156,-0.438 v -6.972 z m 1.69201,9 v -9 h 2.22 q 1.02,0 1.62,0.612 0.6,0.606 0.6,1.608 v 1.44 q 0,0.636 -0.252,1.122 -0.252,0.486 -0.72,0.786 l -0.12,-0.528 q 0.522,0.186 0.804,0.552 0.288,0.366 0.288,0.888 v 2.52 h -1.62 v -2.52 q 0,-0.27 -0.156,-0.432 -0.156,-0.168 -0.444,-0.168 h -0.6 v 3.12 z m 1.62,-4.74 h 0.6 q 0.288,0 0.444,-0.162 0.156,-0.168 0.156,-0.438 v -1.44 q 0,-0.27 -0.156,-0.432 -0.156,-0.168 -0.444,-0.168 h -0.6 z"
       inkscape:transform-center-y="-1.6165548" /></g></svg>
